<?xml version="1.0" standalone="no"?>
<!DOCTYPE svg PUBLIC "-//W3C//DTD SVG 20010904//EN"
 "http://www.w3.org/TR/2001/REC-SVG-20010904/DTD/svg10.dtd">
<svg version="1.0" xmlns="http://www.w3.org/2000/svg"
 width="308.000000pt" height="164.000000pt" viewBox="0 0 308.000000 164.000000"
 preserveAspectRatio="xMidYMid meet">

<g transform="translate(0.000000,164.000000) scale(0.100000,-0.100000)"
fill="#000000" stroke="none">
<path d="M383 1144 c-64 -20 -129 -73 -120 -97 9 -25 36 -32 61 -17 84 54 168
65 241 31 53 -24 111 -90 126 -143 13 -52 7 -121 -17 -171 -14 -30 -15 -39 -4
-52 7 -9 23 -15 34 -13 53 8 85 176 52 276 -49 145 -223 232 -373 186z"/>
<path d="M1778 1010 c-81 -14 -128 -72 -128 -159 0 -37 6 -64 21 -88 45 -72
155 -95 234 -48 51 29 75 75 75 142 0 105 -88 172 -202 153z m89 -94 c22 -19
28 -32 28 -65 0 -53 -30 -85 -80 -85 -44 0 -74 28 -82 77 -5 31 -1 40 25 67
37 36 71 39 109 6z"/>
<path d="M850 850 l0 -160 40 0 40 0 0 50 c0 45 2 50 23 50 15 0 32 -15 55
-50 31 -48 34 -50 77 -50 25 0 45 3 45 6 0 4 -16 29 -35 56 l-36 49 31 25 c25
22 30 33 30 71 0 89 -38 113 -180 113 l-90 0 0 -160z m171 80 c21 -12 25 -40
7 -58 -7 -7 -31 -12 -55 -12 l-43 0 0 40 c0 39 1 40 36 40 19 0 44 -5 55 -10z"/>
<path d="M1180 850 l0 -160 40 0 40 0 0 160 0 160 -40 0 -40 0 0 -160z"/>
<path d="M1310 1005 c0 -3 22 -39 50 -79 l49 -74 -40 -58 c-80 -114 -78 -104
-23 -104 48 0 50 1 80 51 l31 51 32 -51 c32 -50 34 -51 82 -51 l50 0 -52 77
c-29 42 -52 82 -52 88 0 6 18 38 40 71 22 32 43 65 47 72 5 9 -5 12 -41 12
-46 -1 -49 -2 -76 -47 l-29 -47 -26 47 c-26 46 -28 47 -74 47 -27 0 -48 -2
-48 -5z"/>
<path d="M2074 998 c-46 -22 -62 -102 -28 -139 9 -10 42 -27 73 -36 62 -18 87
-35 77 -52 -10 -16 -60 -14 -103 4 -36 15 -38 15 -62 -10 -25 -24 -25 -25 -6
-39 33 -24 102 -39 157 -34 65 7 98 39 98 99 0 48 -24 74 -82 89 -64 16 -90
29 -86 43 6 17 55 21 91 6 27 -11 32 -11 48 10 25 31 24 38 -11 56 -33 17
-134 19 -166 3z"/>
<path d="M2361 913 c55 -91 59 -101 59 -160 l0 -63 45 0 45 0 0 63 c0 58 4 68
60 160 l60 97 -50 0 c-49 0 -50 0 -75 -49 -13 -27 -29 -52 -34 -55 -5 -3 -23
19 -40 49 -31 55 -31 55 -80 55 l-49 0 59 -97z"/>
<path d="M2685 987 c-18 -15 -28 -36 -32 -64 -5 -36 -2 -45 20 -66 15 -13 54
-31 87 -40 48 -14 61 -21 58 -35 -5 -25 -62 -28 -102 -4 l-34 20 -21 -29 c-11
-15 -21 -31 -21 -34 0 -15 90 -45 138 -45 86 0 132 34 132 98 0 45 -31 74
-101 97 -43 13 -65 26 -67 38 -3 13 4 17 32 17 19 0 47 -5 61 -12 24 -11 29
-9 46 12 10 14 19 29 19 33 0 16 -71 37 -129 37 -48 0 -65 -5 -86 -23z"/>
<path d="M208 980 c-10 -6 -18 -19 -18 -28 0 -37 20 -42 166 -42 155 0 168 -5
162 -57 -2 -19 -14 -35 -40 -52 -59 -38 -51 -55 63 -144 55 -43 106 -80 113
-83 16 -6 46 21 46 41 0 7 -30 37 -67 66 -38 29 -72 56 -77 60 -5 4 1 21 13
38 30 42 36 89 18 133 -25 60 -60 72 -222 75 -88 2 -146 0 -157 -7z"/>
<path d="M177 879 c-28 -16 -23 -102 11 -174 47 -98 136 -161 245 -172 29 -3
68 -1 87 4 30 8 35 13 35 39 l0 29 -85 5 c-50 4 -98 13 -116 23 -69 36 -124
130 -124 211 0 30 -28 49 -53 35z"/>
<path d="M868 613 c7 -3 16 -2 19 1 4 3 -2 6 -13 5 -11 0 -14 -3 -6 -6z"/>
<path d="M1133 575 c0 -27 2 -38 4 -22 2 15 2 37 0 50 -2 12 -4 0 -4 -28z"/>
<path d="M1520 572 l5 -47 3 39 c2 21 0 42 -5 47 -4 4 -6 -13 -3 -39z"/>
<path d="M1686 604 c-22 -21 -18 -74 5 -74 5 0 4 8 -2 19 -24 38 21 82 47 46
8 -10 14 -14 14 -9 0 14 -22 34 -36 34 -7 0 -20 -7 -28 -16z"/>
<path d="M1926 604 c-21 -20 -20 -48 2 -65 14 -11 15 -11 5 1 -18 19 -16 45 3
61 13 11 19 10 37 -1 20 -12 21 -12 8 3 -17 21 -35 22 -55 1z"/>
<path d="M2456 611 c-4 -5 3 -7 14 -4 23 6 26 13 6 13 -8 0 -17 -4 -20 -9z"/>
<path d="M720 585 c-20 -25 -8 -50 25 -50 21 0 31 5 33 18 4 21 -14 47 -33 47
-7 0 -18 -7 -25 -15z"/>
<path d="M922 560 c0 -19 2 -27 5 -17 2 9 2 25 0 35 -3 9 -5 1 -5 -18z"/>
<path d="M946 583 c7 -4 14 -19 17 -33 4 -22 5 -21 4 4 -1 17 -9 31 -17 33
-10 3 -11 2 -4 -4z"/>
<path d="M986 583 c7 -4 14 -19 17 -33 4 -22 5 -21 4 4 -1 17 -9 31 -17 33
-10 3 -11 2 -4 -4z"/>
<path d="M1043 543 c-2 -51 8 -52 10 -1 2 23 7 34 21 36 15 3 18 -1 14 -23 -4
-17 -2 -23 4 -17 18 18 4 47 -23 48 -23 1 -25 -3 -26 -43z"/>
<path d="M1150 586 c0 -2 7 -6 15 -10 8 -3 15 -1 15 4 0 6 -7 10 -15 10 -8 0
-15 -2 -15 -4z"/>
<path d="M1232 584 c9 -3 19 -16 21 -30 4 -21 4 -21 3 3 -1 20 -7 28 -21 30
-14 1 -15 0 -3 -3z"/>
<path d="M1295 579 c-4 -6 -4 -13 -1 -16 3 -4 6 -1 6 5 0 6 8 13 18 15 15 4
15 5 0 6 -9 0 -20 -4 -23 -10z"/>
<path d="M1362 560 c0 -19 2 -27 5 -17 2 9 2 25 0 35 -3 9 -5 1 -5 -18z"/>
<path d="M1405 579 c-4 -6 -4 -13 -1 -16 3 -4 6 -1 6 5 0 6 8 13 18 15 15 4
15 5 0 6 -9 0 -20 -4 -23 -10z"/>
<path d="M1560 573 c0 -11 3 -14 8 -7 4 6 14 14 22 17 10 4 8 6 -7 6 -16 1
-23 -5 -23 -16z"/>
<path d="M1783 555 c-1 -27 -1 -27 6 -6 3 13 15 28 26 32 17 7 16 7 -6 6 -21
-1 -25 -6 -26 -32z"/>
<path d="M2020 566 c0 -14 4 -27 8 -30 5 -3 6 8 4 25 -5 35 -12 38 -12 5z"/>
<path d="M2118 583 c6 -2 18 -2 25 0 6 3 1 5 -13 5 -14 0 -19 -2 -12 -5z"/>
<path d="M2232 560 c0 -19 2 -27 5 -17 2 9 2 25 0 35 -3 9 -5 1 -5 -18z"/>
<path d="M2278 583 c7 -3 16 -2 19 1 4 3 -2 6 -13 5 -11 0 -14 -3 -6 -6z"/>
<path d="M2365 579 c-4 -6 -5 -12 -2 -15 2 -3 7 2 10 11 7 17 1 20 -8 4z"/>
<path d="M2534 576 c-3 -8 -4 -23 -1 -33 3 -12 5 -8 6 10 1 27 24 38 34 17 3
-6 4 -5 3 2 -4 19 -35 22 -42 4z"/>
<path d="M2611 558 c2 -28 2 -29 6 -8 3 14 10 28 17 32 7 5 5 8 -6 8 -14 0
-18 -8 -17 -32z"/>
<path d="M2742 560 c0 -19 2 -27 5 -17 2 9 2 25 0 35 -3 9 -5 1 -5 -18z"/>
<path d="M2785 579 c-4 -6 -4 -13 -1 -16 3 -4 6 -1 6 5 0 6 8 13 18 15 15 4
15 5 0 6 -9 0 -20 -4 -23 -10z"/>
<path d="M2857 584 c-10 -10 -9 -54 2 -54 4 0 6 11 3 25 -3 18 0 25 11 25 8 0
18 -5 20 -10 3 -6 4 -5 3 2 -3 15 -28 22 -39 12z"/>
<path d="M1832 550 c0 -14 2 -19 5 -12 2 6 2 18 0 25 -3 6 -5 1 -5 -13z"/>
<path d="M2484 550 c0 -13 4 -16 10 -10 7 7 7 13 0 20 -6 6 -10 3 -10 -10z"/>
<path d="M1215 549 c-4 -6 -5 -12 -2 -15 2 -3 7 2 10 11 7 17 1 20 -8 4z"/>
<path d="M1316 547 c3 -10 9 -15 12 -12 3 3 0 11 -7 18 -10 9 -11 8 -5 -6z"/>
<path d="M1426 547 c3 -10 9 -15 12 -12 3 3 0 11 -7 18 -10 9 -11 8 -5 -6z"/>
<path d="M1586 547 c3 -10 9 -15 12 -12 3 3 0 11 -7 18 -10 9 -11 8 -5 -6z"/>
<path d="M1736 543 c-6 -14 -5 -15 5 -6 7 7 10 15 7 18 -3 3 -9 -2 -12 -12z"/>
<path d="M1968 539 c-9 -9 -14 -20 -11 -23 4 -3 13 3 21 15 18 26 12 31 -10 8z"/>
<path d="M2674 550 c2 -16 20 -14 24 2 3 10 2 10 -6 -1 -7 -9 -11 -10 -15 -2
-4 7 -5 8 -3 1z"/>
<path d="M2343 533 c-3 -10 -8 -22 -10 -28 -3 -5 3 -1 11 9 16 20 21 36 11 36
-3 0 -8 -8 -12 -17z"/>
<path d="M2780 540 c0 -5 5 -10 11 -10 5 0 7 5 4 10 -3 6 -8 10 -11 10 -2 0
-4 -4 -4 -10z"/>
</g>
</svg>
